<svg class="diagram-root" style="background: #f5f6f6" xmlns="http://www.w3.org/2000/svg" xmlns:xlink="http://www.w3.org/1999/xlink"><style>.diagram-root { font-family: "Helvetica Neue", sans-serif; font-size: 12px; } .t { overflow: visible; } .t-bg { y: 40; fill: #fff;   } .th { fill: #005aa0;   } .tht { fill: #fff; font-size: 14px;  } .tf { fill: #323c46; overflow: visible; } .tf.pk { fill: #005aa0; font-weight: bold; } .tf.fk { font-weight: bold; } .ty { fill: #adb1b5; font-weight: normal; text-anchor: end; } .r { fill: transparent; stroke: #c3c3c3; stroke-width: 1; } .l { stroke: 1; } .i { fill: #c2c7ce; stroke: #c2c7ce; } .i.ix { fill: #afb3b6; stroke: #000; } .fa { fill: transparent; overflow: visible; } .fa .bg.hover { fill: #f7f7f7; } .c { cy: 12; r: 4; stroke: #d2d2dc; fill: #d2d2dc; } .hr { fill: transparent; stroke: #323c46; stroke-opacity: 0.035; stroke-width: 13; } .dc { stroke: #fa5a3c; fill: #fa5a3c; } .x { stroke: white; stroke-width: 1; } .hl .th { fill: #1b9bff; } .hl .tht {  } .fhl .bg { fill: #e7f4ff; } .fhls .bg {  } .r.hl { stroke: #1b9bff; } .dim { opacity: 0.25; }</style><g class="drawing-wrapper" transform="translate(-133, -267) scale(1,1)"><g class="rs"><path d="M 802 420 m -1, 0 a 1,1 0 1,0 2,0 a 1,1 0 1,0 -2,0 M 802 420 m -0.5, 0 a 0.5,0.5 0 1,0 1,0 a 0.5,0.5 0 1,0 -1,0  M802 420 L802 420 790 420 M 802 426 m -1, 0 a 1,1 0 1,0 2,0 a 1,1 0 1,0 -2,0 M 802 426 m -0.5, 0 a 0.5,0.5 0 1,0 1,0 a 0.5,0.5 0 1,0 -1,0  M802 426 L802 426 795 420 802 414 M 802 414 m -1, 0 a 1,1 0 1,0 2,0 a 1,1 0 1,0 -2,0 M 802 414 m -0.5, 0 a 0.5,0.5 0 1,0 1,0 a 0.5,0.5 0 1,0 -1,0  M790 420 Q 774.43 420, 758.86 387 T 727.72 354 M 715.72 354 m -1, 0 a 1,1 0 1,0 2,0 a 1,1 0 1,0 -2,0 M 715.72 354 m -0.5, 0 a 0.5,0.5 0 1,0 1,0 a 0.5,0.5 0 1,0 -1,0  M715.72 354 L715.72 354 727.72 354 M721.72 360 L721.72 360 721.72 348" id="h966818545" class="r"></path><path d="M 802 445 m -1, 0 a 1,1 0 1,0 2,0 a 1,1 0 1,0 -2,0 M 802 445 m -0.5, 0 a 0.5,0.5 0 1,0 1,0 a 0.5,0.5 0 1,0 -1,0  M802 445 L802 445 790 445 M 802 451 m -1, 0 a 1,1 0 1,0 2,0 a 1,1 0 1,0 -2,0 M 802 451 m -0.5, 0 a 0.5,0.5 0 1,0 1,0 a 0.5,0.5 0 1,0 -1,0  M802 451 L802 451 795 445 802 439 M 802 439 m -1, 0 a 1,1 0 1,0 2,0 a 1,1 0 1,0 -2,0 M 802 439 m -0.5, 0 a 0.5,0.5 0 1,0 1,0 a 0.5,0.5 0 1,0 -1,0  M790 445 Q 772.6 445, 755.19 475 T 720.38 505 M 708.38 505 m -1, 0 a 1,1 0 1,0 2,0 a 1,1 0 1,0 -2,0 M 708.38 505 m -0.5, 0 a 0.5,0.5 0 1,0 1,0 a 0.5,0.5 0 1,0 -1,0  M708.38 505 L708.38 505 720.38 505 M714.38 511 L714.38 511 714.38 499" id="h1628671892" class="r"></path><path d="M 581 404 m -1, 0 a 1,1 0 1,0 2,0 a 1,1 0 1,0 -2,0 M 581 404 m -0.5, 0 a 0.5,0.5 0 1,0 1,0 a 0.5,0.5 0 1,0 -1,0  M581 404 L581 404 569 404 M 581 410 m -1, 0 a 1,1 0 1,0 2,0 a 1,1 0 1,0 -2,0 M 581 410 m -0.5, 0 a 0.5,0.5 0 1,0 1,0 a 0.5,0.5 0 1,0 -1,0  M581 410 L581 410 574 404 581 398 M 581 398 m -1, 0 a 1,1 0 1,0 2,0 a 1,1 0 1,0 -2,0 M 581 398 m -0.5, 0 a 0.5,0.5 0 1,0 1,0 a 0.5,0.5 0 1,0 -1,0  M569 404 Q 551.18 404, 533.36 425.5 T 497.71 447 M 485.71 447 m -1, 0 a 1,1 0 1,0 2,0 a 1,1 0 1,0 -2,0 M 485.71 447 m -0.5, 0 a 0.5,0.5 0 1,0 1,0 a 0.5,0.5 0 1,0 -1,0  M485.71 447 L485.71 447 497.71 447 M491.71 453 L491.71 453 491.71 441" id="h1010843080" class="r"></path><path d="M 595 530 m -1, 0 a 1,1 0 1,0 2,0 a 1,1 0 1,0 -2,0 M 595 530 m -0.5, 0 a 0.5,0.5 0 1,0 1,0 a 0.5,0.5 0 1,0 -1,0  M595 530 L595 530 583 530 M 595 536 m -1, 0 a 1,1 0 1,0 2,0 a 1,1 0 1,0 -2,0 M 595 536 m -0.5, 0 a 0.5,0.5 0 1,0 1,0 a 0.5,0.5 0 1,0 -1,0  M595 536 L595 536 588 530 595 524 M 595 524 m -1, 0 a 1,1 0 1,0 2,0 a 1,1 0 1,0 -2,0 M 595 524 m -0.5, 0 a 0.5,0.5 0 1,0 1,0 a 0.5,0.5 0 1,0 -1,0  M583 530 Q 561.68 530, 540.36 488.5 T 497.71 447 M 485.71 447 m -1, 0 a 1,1 0 1,0 2,0 a 1,1 0 1,0 -2,0 M 485.71 447 m -0.5, 0 a 0.5,0.5 0 1,0 1,0 a 0.5,0.5 0 1,0 -1,0  M485.71 447 L485.71 447 497.71 447 M491.71 453 L491.71 453 491.71 441" id="h111761524" class="r"></path><path d="M 595 555 m -1, 0 a 1,1 0 1,0 2,0 a 1,1 0 1,0 -2,0 M 595 555 m -0.5, 0 a 0.5,0.5 0 1,0 1,0 a 0.5,0.5 0 1,0 -1,0  M595 555 L595 555 583 555 M 595 561 m -1, 0 a 1,1 0 1,0 2,0 a 1,1 0 1,0 -2,0 M 595 561 m -0.5, 0 a 0.5,0.5 0 1,0 1,0 a 0.5,0.5 0 1,0 -1,0  M595 561 L595 561 588 555 595 549 M 595 549 m -1, 0 a 1,1 0 1,0 2,0 a 1,1 0 1,0 -2,0 M 595 549 m -0.5, 0 a 0.5,0.5 0 1,0 1,0 a 0.5,0.5 0 1,0 -1,0  M583 555 Q 561.68 555, 540.36 501 T 497.71 447 M 485.71 447 m -1, 0 a 1,1 0 1,0 2,0 a 1,1 0 1,0 -2,0 M 485.71 447 m -0.5, 0 a 0.5,0.5 0 1,0 1,0 a 0.5,0.5 0 1,0 -1,0  M485.71 447 L485.71 447 497.71 447 M491.71 453 L491.71 453 491.71 441" id="h1780168927" class="r"></path><path d="M 708.38 580 m -1, 0 a 1,1 0 1,0 2,0 a 1,1 0 1,0 -2,0 M 708.38 580 m -0.5, 0 a 0.5,0.5 0 1,0 1,0 a 0.5,0.5 0 1,0 -1,0  M708.38 580 L708.38 580 720.38 580 M 708.38 586 m -1, 0 a 1,1 0 1,0 2,0 a 1,1 0 1,0 -2,0 M 708.38 586 m -0.5, 0 a 0.5,0.5 0 1,0 1,0 a 0.5,0.5 0 1,0 -1,0  M708.38 586 L708.38 586 715.38 580 708.38 574 M 708.38 574 m -1, 0 a 1,1 0 1,0 2,0 a 1,1 0 1,0 -2,0 M 708.38 574 m -0.5, 0 a 0.5,0.5 0 1,0 1,0 a 0.5,0.5 0 1,0 -1,0  M720.38 580 Q 737.54 580, 754.69 579.5 T 789 579 M 801 579 m -1, 0 a 1,1 0 1,0 2,0 a 1,1 0 1,0 -2,0 M 801 579 m -0.5, 0 a 0.5,0.5 0 1,0 1,0 a 0.5,0.5 0 1,0 -1,0  M801 579 L801 579 789 579 M795 585 L795 585 795 573" id="h1013995761" class="r"></path><path d="M 595 605 m -1, 0 a 1,1 0 1,0 2,0 a 1,1 0 1,0 -2,0 M 595 605 m -0.5, 0 a 0.5,0.5 0 1,0 1,0 a 0.5,0.5 0 1,0 -1,0  M595 605 L595 605 583 605 M 595 611 m -1, 0 a 1,1 0 1,0 2,0 a 1,1 0 1,0 -2,0 M 595 611 m -0.5, 0 a 0.5,0.5 0 1,0 1,0 a 0.5,0.5 0 1,0 -1,0  M595 611 L595 611 588 605 595 599 M 595 599 m -1, 0 a 1,1 0 1,0 2,0 a 1,1 0 1,0 -2,0 M 595 599 m -0.5, 0 a 0.5,0.5 0 1,0 1,0 a 0.5,0.5 0 1,0 -1,0  M583 605 Q 561.76 605, 540.52 605 T 498.04 605 M 486.04 605 m -1, 0 a 1,1 0 1,0 2,0 a 1,1 0 1,0 -2,0 M 486.04 605 m -0.5, 0 a 0.5,0.5 0 1,0 1,0 a 0.5,0.5 0 1,0 -1,0  M486.04 605 L486.04 605 498.04 605 M492.04 611 L492.04 611 492.04 599" id="h3078248482" class="r"></path><path d="M 262.37 482 m -1, 0 a 1,1 0 1,0 2,0 a 1,1 0 1,0 -2,0 M 262.37 482 m -0.5, 0 a 0.5,0.5 0 1,0 1,0 a 0.5,0.5 0 1,0 -1,0  M262.37 482 L262.37 482 274.37 482 M 262.37 488 m -1, 0 a 1,1 0 1,0 2,0 a 1,1 0 1,0 -2,0 M 262.37 488 m -0.5, 0 a 0.5,0.5 0 1,0 1,0 a 0.5,0.5 0 1,0 -1,0  M262.37 488 L262.37 488 269.37 482 262.37 476 M 262.37 476 m -1, 0 a 1,1 0 1,0 2,0 a 1,1 0 1,0 -2,0 M 262.37 476 m -0.5, 0 a 0.5,0.5 0 1,0 1,0 a 0.5,0.5 0 1,0 -1,0  M274.37 482 Q 292.03 482, 309.69 464.5 T 345 447 M 357 447 m -1, 0 a 1,1 0 1,0 2,0 a 1,1 0 1,0 -2,0 M 357 447 m -0.5, 0 a 0.5,0.5 0 1,0 1,0 a 0.5,0.5 0 1,0 -1,0  M357 447 L357 447 345 447 M351 453 L351 453 351 441" id="h2144058147" class="r"></path><path d="M 262.37 507 m -1, 0 a 1,1 0 1,0 2,0 a 1,1 0 1,0 -2,0 M 262.37 507 m -0.5, 0 a 0.5,0.5 0 1,0 1,0 a 0.5,0.5 0 1,0 -1,0  M262.37 507 L262.37 507 274.37 507 M 262.37 513 m -1, 0 a 1,1 0 1,0 2,0 a 1,1 0 1,0 -2,0 M 262.37 513 m -0.5, 0 a 0.5,0.5 0 1,0 1,0 a 0.5,0.5 0 1,0 -1,0  M262.37 513 L262.37 513 269.37 507 262.37 501 M 262.37 501 m -1, 0 a 1,1 0 1,0 2,0 a 1,1 0 1,0 -2,0 M 262.37 501 m -0.5, 0 a 0.5,0.5 0 1,0 1,0 a 0.5,0.5 0 1,0 -1,0  M274.37 507 Q 351.53 507, 428.69 506 T 583 505 M 595 505 m -1, 0 a 1,1 0 1,0 2,0 a 1,1 0 1,0 -2,0 M 595 505 m -0.5, 0 a 0.5,0.5 0 1,0 1,0 a 0.5,0.5 0 1,0 -1,0  M595 505 L595 505 583 505 M589 511 L589 511 589 499" id="h1327050153" class="r"></path></g><g class="hrs"></g><g class="ts"><svg width="128.71" height="100" x="357" y="390" id="h2129428134" class="t"><rect height="40" width="128.71" class="th"></rect><text x="13" y="25" class="tht">teams</text><rect height="60" width="128.71" class="t-bg"></rect><text x="13" y="61" class="tf pk">id<tspan x="115.71000000000001" class="ty">serial</tspan></text><path d="M7,14A2,2 0 0,1 5,12A2,2 0 0,1 7,10A2,2 0 0,1 9,12A2,2 0 0,1 7,14M12.65,10C11.83,7.67 9.61,6 7, 6A6, 6 0 0, 0 1, 12A6, 6 0 0, 0 7, 18C9.61, 18 11.83, 16.33 12.65, 14H17V18H21V14H23V10H12.65Z" class="i pk" transform="translate(67.03421875000001, 48) scale(0.65)"></path><text x="13" y="86" class="tf">team_name<tspan x="115.71000000000001" class="ty">text</tspan></text></svg><svg width="107.37" height="125" x="802" y="338" id="h3636817144" class="t"><rect height="40" width="107.37" class="th"></rect><text x="13" y="25" class="tht">goals</text><rect height="85" width="107.37" class="t-bg"></rect><text x="13" y="61" class="tf pk">id<tspan x="94.37" class="ty">serial</tspan></text><path d="M7,14A2,2 0 0,1 5,12A2,2 0 0,1 7,10A2,2 0 0,1 9,12A2,2 0 0,1 7,14M12.65,10C11.83,7.67 9.61,6 7, 6A6, 6 0 0, 0 1, 12A6, 6 0 0, 0 7, 18C9.61, 18 11.83, 16.33 12.65, 14H17V18H21V14H23V10H12.65Z" class="i pk" transform="translate(45.694218750000005, 48) scale(0.65)"></path><text x="13" y="86" class="tf fk">player_id<tspan x="94.37" class="ty">int</tspan></text><text x="13" y="111" class="tf fk">match_id<tspan x="94.37" class="ty">int</tspan></text></svg><svg width="134.72" height="125" x="581" y="297" id="h2511403611" class="t"><rect height="40" width="134.72" class="th"></rect><text x="13" y="25" class="tht">players</text><rect height="85" width="134.72" class="t-bg"></rect><text x="13" y="61" class="tf pk">id<tspan x="121.72" class="ty">serial</tspan></text><path d="M7,14A2,2 0 0,1 5,12A2,2 0 0,1 7,10A2,2 0 0,1 9,12A2,2 0 0,1 7,14M12.65,10C11.83,7.67 9.61,6 7, 6A6, 6 0 0, 0 1, 12A6, 6 0 0, 0 7, 18C9.61, 18 11.83, 16.33 12.65, 14H17V18H21V14H23V10H12.65Z" class="i pk" transform="translate(73.04421875, 48) scale(0.65)"></path><text x="13" y="86" class="tf">player_name<tspan x="121.72" class="ty">text</tspan></text><text x="13" y="111" class="tf fk">team_id<tspan x="121.72" class="ty">int</tspan></text></svg><svg width="113.38" height="175" x="595" y="448" id="h272759971" class="t"><rect height="40" width="113.38" class="th"></rect><text x="13" y="25" class="tht">matches</text><rect height="135" width="113.38" class="t-bg"></rect><text x="13" y="61" class="tf pk">id<tspan x="100.38" class="ty">serial</tspan></text><path d="M7,14A2,2 0 0,1 5,12A2,2 0 0,1 7,10A2,2 0 0,1 9,12A2,2 0 0,1 7,14M12.65,10C11.83,7.67 9.61,6 7, 6A6, 6 0 0, 0 1, 12A6, 6 0 0, 0 7, 18C9.61, 18 11.83, 16.33 12.65, 14H17V18H21V14H23V10H12.65Z" class="i pk" transform="translate(51.704218749999995, 48) scale(0.65)"></path><text x="13" y="86" class="tf fk">team1_id<tspan x="100.38" class="ty">int</tspan></text><text x="13" y="111" class="tf fk">team2_id<tspan x="100.38" class="ty">int</tspan></text><text x="13" y="136" class="tf fk">season_id<tspan x="100.38" class="ty">int</tspan></text><text x="13" y="161" class="tf fk">ref_id<tspan x="100.38" class="ty">int</tspan></text></svg><svg width="104.02" height="125" x="801" y="522" id="h2259709164" class="t"><rect height="40" width="104.02" class="th"></rect><text x="13" y="25" class="tht">seasons</text><rect height="85" width="104.02" class="t-bg"></rect><text x="13" y="61" class="tf pk">id<tspan x="91.02" class="ty">serial</tspan></text><path d="M7,14A2,2 0 0,1 5,12A2,2 0 0,1 7,10A2,2 0 0,1 9,12A2,2 0 0,1 7,14M12.65,10C11.83,7.67 9.61,6 7, 6A6, 6 0 0, 0 1, 12A6, 6 0 0, 0 7, 18C9.61, 18 11.83, 16.33 12.65, 14H17V18H21V14H23V10H12.65Z" class="i pk" transform="translate(42.344218749999996, 48) scale(0.65)"></path><text x="13" y="86" class="tf">start<tspan x="91.02" class="ty">date</tspan></text><text x="13" y="111" class="tf">end<tspan x="91.02" class="ty">date</tspan></text></svg><svg width="107.37" height="150" x="155" y="400" id="h368454595" class="t"><rect height="40" width="107.37" class="th"></rect><text x="13" y="25" class="tht">rankings</text><rect height="110" width="107.37" class="t-bg"></rect><text x="13" y="61" class="tf pk">id<tspan x="94.37" class="ty">serial</tspan></text><path d="M7,14A2,2 0 0,1 5,12A2,2 0 0,1 7,10A2,2 0 0,1 9,12A2,2 0 0,1 7,14M12.65,10C11.83,7.67 9.61,6 7, 6A6, 6 0 0, 0 1, 12A6, 6 0 0, 0 7, 18C9.61, 18 11.83, 16.33 12.65, 14H17V18H21V14H23V10H12.65Z" class="i pk" transform="translate(45.694218750000005, 48) scale(0.65)"></path><text x="13" y="86" class="tf fk">team_id<tspan x="94.37" class="ty">int</tspan></text><text x="13" y="111" class="tf fk">match_id<tspan x="94.37" class="ty">int</tspan></text><text x="13" y="136" class="tf">result<tspan x="94.37" class="ty">text</tspan></text></svg><svg width="116.04" height="100" x="370" y="548" id="h441037955" class="t"><rect height="40" width="116.04" class="th"></rect><text x="13" y="25" class="tht">referees</text><rect height="60" width="116.04" class="t-bg"></rect><text x="13" y="61" class="tf pk">id<tspan x="103.04" class="ty">serial</tspan></text><path d="M7,14A2,2 0 0,1 5,12A2,2 0 0,1 7,10A2,2 0 0,1 9,12A2,2 0 0,1 7,14M12.65,10C11.83,7.67 9.61,6 7, 6A6, 6 0 0, 0 1, 12A6, 6 0 0, 0 7, 18C9.61, 18 11.83, 16.33 12.65, 14H17V18H21V14H23V10H12.65Z" class="i pk" transform="translate(54.364218750000006, 48) scale(0.65)"></path><text x="13" y="86" class="tf">ref_name<tspan x="103.04" class="ty">text</tspan></text></svg></g></g><text class="qdbd-link" x="10" y="20">www.quickdatabasediagrams.com</text></svg>