<svg class="diagram-root" style="background: #f5f6f6" xmlns="http://www.w3.org/2000/svg" xmlns:xlink="http://www.w3.org/1999/xlink"><style>.diagram-root { font-family: "Helvetica Neue", sans-serif; font-size: 12px; } .t { overflow: visible; } .t-bg { y: 40; fill: #fff;   } .th { fill: #005aa0;   } .tht { fill: #fff; font-size: 14px;  } .tf { fill: #323c46; overflow: visible; } .tf.pk { fill: #005aa0; font-weight: bold; } .tf.fk { font-weight: bold; } .ty { fill: #adb1b5; font-weight: normal; text-anchor: end; } .r { fill: transparent; stroke: #c3c3c3; stroke-width: 1; } .l { stroke: 1; } .i { fill: #c2c7ce; stroke: #c2c7ce; } .i.ix { fill: #afb3b6; stroke: #000; } .fa { fill: transparent; overflow: visible; } .fa .bg.hover { fill: #f7f7f7; } .c { cy: 12; r: 4; stroke: #d2d2dc; fill: #d2d2dc; } .hr { fill: transparent; stroke: #323c46; stroke-opacity: 0.035; stroke-width: 13; } .dc { stroke: #fa5a3c; fill: #fa5a3c; } .x { stroke: white; stroke-width: 1; } .hl .th { fill: #1b9bff; } .hl .tht {  } .fhl .bg { fill: #e7f4ff; } .fhls .bg {  } .r.hl { stroke: #1b9bff; } .dim { opacity: 0.25; }</style><g class="drawing-wrapper" transform="translate(-128, -228) scale(1,1)"><g class="rs"><path d="M 515.07 390 m -1, 0 a 1,1 0 1,0 2,0 a 1,1 0 1,0 -2,0 M 515.07 390 m -0.5, 0 a 0.5,0.5 0 1,0 1,0 a 0.5,0.5 0 1,0 -1,0  M515.07 390 L515.07 390 527.07 390 M 515.07 396 m -1, 0 a 1,1 0 1,0 2,0 a 1,1 0 1,0 -2,0 M 515.07 396 m -0.5, 0 a 0.5,0.5 0 1,0 1,0 a 0.5,0.5 0 1,0 -1,0  M515.07 396 L515.07 396 522.07 390 515.07 384 M 515.07 384 m -1, 0 a 1,1 0 1,0 2,0 a 1,1 0 1,0 -2,0 M 515.07 384 m -0.5, 0 a 0.5,0.5 0 1,0 1,0 a 0.5,0.5 0 1,0 -1,0  M527.07 390 Q 544.06 390, 561.04 390 T 595 390 M 607 390 m -1, 0 a 1,1 0 1,0 2,0 a 1,1 0 1,0 -2,0 M 607 390 m -0.5, 0 a 0.5,0.5 0 1,0 1,0 a 0.5,0.5 0 1,0 -1,0  M607 390 L607 390 595 390 M601 396 L601 396 601 384" id="h1638034264" class="r"></path><path d="M 351 415 m -1, 0 a 1,1 0 1,0 2,0 a 1,1 0 1,0 -2,0 M 351 415 m -0.5, 0 a 0.5,0.5 0 1,0 1,0 a 0.5,0.5 0 1,0 -1,0  M351 415 L351 415 339 415 M 351 421 m -1, 0 a 1,1 0 1,0 2,0 a 1,1 0 1,0 -2,0 M 351 421 m -0.5, 0 a 0.5,0.5 0 1,0 1,0 a 0.5,0.5 0 1,0 -1,0  M351 421 L351 421 344 415 351 409 M 351 409 m -1, 0 a 1,1 0 1,0 2,0 a 1,1 0 1,0 -2,0 M 351 409 m -0.5, 0 a 0.5,0.5 0 1,0 1,0 a 0.5,0.5 0 1,0 -1,0  M339 415 Q 320.76 415, 302.51 415 T 266.02 415 M 254.02 415 m -1, 0 a 1,1 0 1,0 2,0 a 1,1 0 1,0 -2,0 M 254.02 415 m -0.5, 0 a 0.5,0.5 0 1,0 1,0 a 0.5,0.5 0 1,0 -1,0  M254.02 415 L254.02 415 266.02 415 M260.02 421 L260.02 421 260.02 409" id="h4280260644" class="r"></path></g><g class="hrs"></g><g class="ts"><svg width="164.07" height="200" x="351" y="258" id="h1562112029" class="t"><rect height="40" width="164.07" class="th"></rect><text x="13" y="25" class="tht">planet</text><rect height="160" width="164.07" class="t-bg"></rect><text x="13" y="61" class="tf pk">id<tspan x="151.07" class="ty">serial</tspan></text><path d="M7,14A2,2 0 0,1 5,12A2,2 0 0,1 7,10A2,2 0 0,1 9,12A2,2 0 0,1 7,14M12.65,10C11.83,7.67 9.61,6 7, 6A6, 6 0 0, 0 1, 12A6, 6 0 0, 0 7, 18C9.61, 18 11.83, 16.33 12.65, 14H17V18H21V14H23V10H12.65Z" class="i pk" transform="translate(102.39421875, 48) scale(0.65)"></path><text x="13" y="86" class="tf">name<tspan x="151.07" class="ty">text</tspan></text><text x="13" y="111" class="tf">orbital_period_yrs<tspan x="151.07" class="ty">float</tspan></text><text x="13" y="136" class="tf fk">orbits_id<tspan x="151.07" class="ty">int</tspan></text><text x="13" y="161" class="tf fk">galaxy_id<tspan x="151.07" class="ty">int</tspan></text><text x="13" y="186" class="tf">moons<tspan x="151.07" class="ty">text?</tspan></text></svg><svg width="104.02" height="100" x="607" y="333" id="h380323721" class="t"><rect height="40" width="104.02" class="th"></rect><text x="13" y="25" class="tht">orbits</text><rect height="60" width="104.02" class="t-bg"></rect><text x="13" y="61" class="tf pk">id<tspan x="91.02" class="ty">serial</tspan></text><path d="M7,14A2,2 0 0,1 5,12A2,2 0 0,1 7,10A2,2 0 0,1 9,12A2,2 0 0,1 7,14M12.65,10C11.83,7.67 9.61,6 7, 6A6, 6 0 0, 0 1, 12A6, 6 0 0, 0 7, 18C9.61, 18 11.83, 16.33 12.65, 14H17V18H21V14H23V10H12.65Z" class="i pk" transform="translate(42.344218749999996, 48) scale(0.65)"></path><text x="13" y="86" class="tf">star<tspan x="91.02" class="ty">text</tspan></text></svg><svg width="104.02" height="100" x="150" y="358" id="h2347650020" class="t"><rect height="40" width="104.02" class="th"></rect><text x="13" y="25" class="tht">galaxies</text><rect height="60" width="104.02" class="t-bg"></rect><text x="13" y="61" class="tf pk">id<tspan x="91.02" class="ty">serial</tspan></text><path d="M7,14A2,2 0 0,1 5,12A2,2 0 0,1 7,10A2,2 0 0,1 9,12A2,2 0 0,1 7,14M12.65,10C11.83,7.67 9.61,6 7, 6A6, 6 0 0, 0 1, 12A6, 6 0 0, 0 7, 18C9.61, 18 11.83, 16.33 12.65, 14H17V18H21V14H23V10H12.65Z" class="i pk" transform="translate(42.344218749999996, 48) scale(0.65)"></path><text x="13" y="86" class="tf">galaxy<tspan x="91.02" class="ty">text</tspan></text></svg></g></g><text class="qdbd-link" x="10" y="20">www.quickdatabasediagrams.com</text></svg>