<svg class="diagram-root" style="background: #f5f6f6" xmlns="http://www.w3.org/2000/svg" xmlns:xlink="http://www.w3.org/1999/xlink"><style>.diagram-root { font-family: "Helvetica Neue", sans-serif; font-size: 12px; } .t { overflow: visible; } .t-bg { y: 40; fill: #fff;   } .th { fill: #005aa0;   } .tht { fill: #fff; font-size: 14px;  } .tf { fill: #323c46; overflow: visible; } .tf.pk { fill: #005aa0; font-weight: bold; } .tf.fk { font-weight: bold; } .ty { fill: #adb1b5; font-weight: normal; text-anchor: end; } .r { fill: transparent; stroke: #c3c3c3; stroke-width: 1; } .l { stroke: 1; } .i { fill: #c2c7ce; stroke: #c2c7ce; } .i.ix { fill: #afb3b6; stroke: #000; } .fa { fill: transparent; overflow: visible; } .fa .bg.hover { fill: #f7f7f7; } .c { cy: 12; r: 4; stroke: #d2d2dc; fill: #d2d2dc; } .hr { fill: transparent; stroke: #323c46; stroke-opacity: 0.035; stroke-width: 13; } .dc { stroke: #fa5a3c; fill: #fa5a3c; } .x { stroke: white; stroke-width: 1; } .hl .th { fill: #1b9bff; } .hl .tht {  } .fhl .bg { fill: #e7f4ff; } .fhls .bg {  } .r.hl { stroke: #1b9bff; } .dim { opacity: 0.25; }</style><g class="drawing-wrapper" transform="translate(-127, 9) scale(1,1)"><g class="rs"><path d="M 151 128 m -1, 0 a 1,1 0 1,0 2,0 a 1,1 0 1,0 -2,0 M 151 128 m -0.5, 0 a 0.5,0.5 0 1,0 1,0 a 0.5,0.5 0 1,0 -1,0  M151 128 L151 128 139 128 M 151 134 m -1, 0 a 1,1 0 1,0 2,0 a 1,1 0 1,0 -2,0 M 151 134 m -0.5, 0 a 0.5,0.5 0 1,0 1,0 a 0.5,0.5 0 1,0 -1,0  M151 134 L151 134 144 128 151 122 M 151 122 m -1, 0 a 1,1 0 1,0 2,0 a 1,1 0 1,0 -2,0 M 151 122 m -0.5, 0 a 0.5,0.5 0 1,0 1,0 a 0.5,0.5 0 1,0 -1,0  M139 128 C 105.79259350686159 128, 106.9925935068616 218, 137 218 M 149 218 m -1, 0 a 1,1 0 1,0 2,0 a 1,1 0 1,0 -2,0 M 149 218 m -0.5, 0 a 0.5,0.5 0 1,0 1,0 a 0.5,0.5 0 1,0 -1,0  M149 218 L149 218 137 218 M143 224 L143 224 143 212" id="h3465011231" class="r"></path><path d="M 432 165 m -1, 0 a 1,1 0 1,0 2,0 a 1,1 0 1,0 -2,0 M 432 165 m -0.5, 0 a 0.5,0.5 0 1,0 1,0 a 0.5,0.5 0 1,0 -1,0  M432 165 L432 165 420 165 M 432 171 m -1, 0 a 1,1 0 1,0 2,0 a 1,1 0 1,0 -2,0 M 432 171 m -0.5, 0 a 0.5,0.5 0 1,0 1,0 a 0.5,0.5 0 1,0 -1,0  M432 171 L432 171 425 165 432 159 M 432 159 m -1, 0 a 1,1 0 1,0 2,0 a 1,1 0 1,0 -2,0 M 432 159 m -0.5, 0 a 0.5,0.5 0 1,0 1,0 a 0.5,0.5 0 1,0 -1,0  M420 165 Q 385.43 165, 350.85 121.5 T 281.7 78 M 269.7 78 m -1, 0 a 1,1 0 1,0 2,0 a 1,1 0 1,0 -2,0 M 269.7 78 m -0.5, 0 a 0.5,0.5 0 1,0 1,0 a 0.5,0.5 0 1,0 -1,0  M269.7 78 L269.7 78 281.7 78 M275.7 84 L275.7 84 275.7 72" id="h2015774231" class="r"></path><path d="M 432 215 m -1, 0 a 1,1 0 1,0 2,0 a 1,1 0 1,0 -2,0 M 432 215 m -0.5, 0 a 0.5,0.5 0 1,0 1,0 a 0.5,0.5 0 1,0 -1,0  M432 215 L432 215 420 215 M 432 221 m -1, 0 a 1,1 0 1,0 2,0 a 1,1 0 1,0 -2,0 M 432 221 m -0.5, 0 a 0.5,0.5 0 1,0 1,0 a 0.5,0.5 0 1,0 -1,0  M432 221 L432 221 425 215 432 209 M 432 209 m -1, 0 a 1,1 0 1,0 2,0 a 1,1 0 1,0 -2,0 M 432 209 m -0.5, 0 a 0.5,0.5 0 1,0 1,0 a 0.5,0.5 0 1,0 -1,0  M420 215 Q 389.1 215, 358.2 216.5 T 296.39 218 M 284.39 218 m -1, 0 a 1,1 0 1,0 2,0 a 1,1 0 1,0 -2,0 M 284.39 218 m -0.5, 0 a 0.5,0.5 0 1,0 1,0 a 0.5,0.5 0 1,0 -1,0  M284.39 218 L284.39 218 296.39 218 M290.39 224 L290.39 224 290.39 212" id="h2133289655" class="r"></path><path d="M 552.71 240 m -1, 0 a 1,1 0 1,0 2,0 a 1,1 0 1,0 -2,0 M 552.71 240 m -0.5, 0 a 0.5,0.5 0 1,0 1,0 a 0.5,0.5 0 1,0 -1,0  M552.71 240 L552.71 240 564.71 240 M 552.71 246 m -1, 0 a 1,1 0 1,0 2,0 a 1,1 0 1,0 -2,0 M 552.71 246 m -0.5, 0 a 0.5,0.5 0 1,0 1,0 a 0.5,0.5 0 1,0 -1,0  M552.71 246 L552.71 246 559.71 240 552.71 234 M 552.71 234 m -1, 0 a 1,1 0 1,0 2,0 a 1,1 0 1,0 -2,0 M 552.71 234 m -0.5, 0 a 0.5,0.5 0 1,0 1,0 a 0.5,0.5 0 1,0 -1,0  M564.71 240 Q 584.67 240, 604.63 239.72 T 644.5555555555557 239.4444444444445 M 656.5555555555557 239.4444444444445 m -1, 0 a 1,1 0 1,0 2,0 a 1,1 0 1,0 -2,0 M 656.5555555555557 239.4444444444445 m -0.5, 0 a 0.5,0.5 0 1,0 1,0 a 0.5,0.5 0 1,0 -1,0  M656.5555555555557 239.4444444444445 L656.5555555555557 239.4444444444445 644.5555555555557 239.4444444444445 M650.5555555555557 245.4444444444445 L650.5555555555557 245.4444444444445 650.5555555555557 233.4444444444445" id="h3197795845" class="r"></path></g><g class="hrs"></g><g class="ts"><svg width="135.39" height="100" x="149" y="161" id="h850082920" class="t"><rect height="40" width="135.39" class="th"></rect><text x="13" y="25" class="tht">regions</text><rect height="60" width="135.39" class="t-bg"></rect><text x="13" y="61" class="tf pk">id<tspan x="122.38999999999999" class="ty">serial</tspan></text><path d="M7,14A2,2 0 0,1 5,12A2,2 0 0,1 7,10A2,2 0 0,1 9,12A2,2 0 0,1 7,14M12.65,10C11.83,7.67 9.61,6 7, 6A6, 6 0 0, 0 1, 12A6, 6 0 0, 0 7, 18C9.61, 18 11.83, 16.33 12.65, 14H17V18H21V14H23V10H12.65Z" class="i pk" transform="translate(73.71421874999999, 48) scale(0.65)"></path><text x="13" y="86" class="tf">region_name<tspan x="122.38999999999999" class="ty">text</tspan></text></svg><svg width="118.7" height="125" x="151" y="21" id="h2948373614" class="t"><rect height="40" width="118.7" class="th"></rect><text x="13" y="25" class="tht">users</text><rect height="85" width="118.7" class="t-bg"></rect><text x="13" y="61" class="tf pk">id<tspan x="105.7" class="ty">serial</tspan></text><path d="M7,14A2,2 0 0,1 5,12A2,2 0 0,1 7,10A2,2 0 0,1 9,12A2,2 0 0,1 7,14M12.65,10C11.83,7.67 9.61,6 7, 6A6, 6 0 0, 0 1, 12A6, 6 0 0, 0 7, 18C9.61, 18 11.83, 16.33 12.65, 14H17V18H21V14H23V10H12.65Z" class="i pk" transform="translate(57.02421875, 48) scale(0.65)"></path><text x="13" y="86" class="tf">username<tspan x="105.7" class="ty">text</tspan></text><text x="13" y="111" class="tf fk">region_id<tspan x="105.7" class="ty">int</tspan></text></svg><svg width="120.71" height="225" x="432" y="33" id="h2471855060" class="t"><rect height="40" width="120.71" class="th"></rect><text x="13" y="25" class="tht">posts</text><rect height="185" width="120.71" class="t-bg"></rect><text x="13" y="61" class="tf pk">id<tspan x="107.71" class="ty">serial</tspan></text><path d="M7,14A2,2 0 0,1 5,12A2,2 0 0,1 7,10A2,2 0 0,1 9,12A2,2 0 0,1 7,14M12.65,10C11.83,7.67 9.61,6 7, 6A6, 6 0 0, 0 1, 12A6, 6 0 0, 0 7, 18C9.61, 18 11.83, 16.33 12.65, 14H17V18H21V14H23V10H12.65Z" class="i pk" transform="translate(59.034218749999994, 48) scale(0.65)"></path><text x="13" y="86" class="tf">title<tspan x="107.71" class="ty">text</tspan></text><text x="13" y="111" class="tf">content<tspan x="107.71" class="ty">text</tspan></text><text x="13" y="136" class="tf fk">user_id<tspan x="107.71" class="ty">int</tspan></text><text x="13" y="161" class="tf">location<tspan x="107.71" class="ty">text</tspan></text><text x="13" y="186" class="tf fk">region_id<tspan x="107.71" class="ty">int</tspan></text><text x="13" y="211" class="tf fk">category_id<tspan x="107.71" class="ty">int</tspan></text></svg><svg width="118.04" height="100" x="656.5555555555557" y="182.4444444444445" id="h2129794260" class="t"><rect height="40" width="118.04" class="th"></rect><text x="13" y="25" class="tht">categories</text><rect height="60" width="118.04" class="t-bg"></rect><text x="13" y="61" class="tf pk">id<tspan x="105.04" class="ty">serial</tspan></text><path d="M7,14A2,2 0 0,1 5,12A2,2 0 0,1 7,10A2,2 0 0,1 9,12A2,2 0 0,1 7,14M12.65,10C11.83,7.67 9.61,6 7, 6A6, 6 0 0, 0 1, 12A6, 6 0 0, 0 7, 18C9.61, 18 11.83, 16.33 12.65, 14H17V18H21V14H23V10H12.65Z" class="i pk" transform="translate(56.364218750000006, 48) scale(0.65)"></path><text x="13" y="86" class="tf">cat_name<tspan x="105.04" class="ty">text</tspan></text></svg></g></g><text class="qdbd-link" x="10" y="20">www.quickdatabasediagrams.com</text></svg>