<svg class="diagram-root" style="background: #f5f6f6" xmlns="http://www.w3.org/2000/svg" xmlns:xlink="http://www.w3.org/1999/xlink"><style>.diagram-root { font-family: "Helvetica Neue", sans-serif; font-size: 12px; } .t { overflow: visible; } .t-bg { y: 40; fill: #fff;   } .th { fill: #005aa0;   } .tht { fill: #fff; font-size: 14px;  } .tf { fill: #323c46; overflow: visible; } .tf.pk { fill: #005aa0; font-weight: bold; } .tf.fk { font-weight: bold; } .ty { fill: #adb1b5; font-weight: normal; text-anchor: end; } .r { fill: transparent; stroke: #c3c3c3; stroke-width: 1; } .l { stroke: 1; } .i { fill: #c2c7ce; stroke: #c2c7ce; } .i.ix { fill: #afb3b6; stroke: #000; } .fa { fill: transparent; overflow: visible; } .fa .bg.hover { fill: #f7f7f7; } .c { cy: 12; r: 4; stroke: #d2d2dc; fill: #d2d2dc; } .hr { fill: transparent; stroke: #323c46; stroke-opacity: 0.035; stroke-width: 13; } .dc { stroke: #fa5a3c; fill: #fa5a3c; } .x { stroke: white; stroke-width: 1; } .hl .th { fill: #1b9bff; } .hl .tht {  } .fhl .bg { fill: #e7f4ff; } .fhls .bg {  } .r.hl { stroke: #1b9bff; } .dim { opacity: 0.25; }</style><g class="drawing-wrapper" transform="translate(-202, -43.75) scale(1,1)"><g class="rs"><path d="M 459 327 m -1, 0 a 1,1 0 1,0 2,0 a 1,1 0 1,0 -2,0 M 459 327 m -0.5, 0 a 0.5,0.5 0 1,0 1,0 a 0.5,0.5 0 1,0 -1,0  M459 327 L459 327 447 327 M 459 333 m -1, 0 a 1,1 0 1,0 2,0 a 1,1 0 1,0 -2,0 M 459 333 m -0.5, 0 a 0.5,0.5 0 1,0 1,0 a 0.5,0.5 0 1,0 -1,0  M459 333 L459 333 452 327 459 321 M 459 321 m -1, 0 a 1,1 0 1,0 2,0 a 1,1 0 1,0 -2,0 M 459 321 m -0.5, 0 a 0.5,0.5 0 1,0 1,0 a 0.5,0.5 0 1,0 -1,0  M447 327 Q 430.76 327, 414.52 327 T 382.04 327 M 370.04 327 m -1, 0 a 1,1 0 1,0 2,0 a 1,1 0 1,0 -2,0 M 370.04 327 m -0.5, 0 a 0.5,0.5 0 1,0 1,0 a 0.5,0.5 0 1,0 -1,0  M370.04 327 L370.04 327 382.04 327 M376.04 333 L376.04 333 376.04 321" id="h4149096453" class="r"></path><path d="M 821.25 155.75 m -1, 0 a 1,1 0 1,0 2,0 a 1,1 0 1,0 -2,0 M 821.25 155.75 m -0.5, 0 a 0.5,0.5 0 1,0 1,0 a 0.5,0.5 0 1,0 -1,0  M821.25 155.75 L821.25 155.75 809.25 155.75 M 821.25 161.75 m -1, 0 a 1,1 0 1,0 2,0 a 1,1 0 1,0 -2,0 M 821.25 161.75 m -0.5, 0 a 0.5,0.5 0 1,0 1,0 a 0.5,0.5 0 1,0 -1,0  M821.25 161.75 L821.25 161.75 814.25 155.75 821.25 149.75 M 821.25 149.75 m -1, 0 a 1,1 0 1,0 2,0 a 1,1 0 1,0 -2,0 M 821.25 149.75 m -0.5, 0 a 0.5,0.5 0 1,0 1,0 a 0.5,0.5 0 1,0 -1,0  M809.25 155.75 Q 777.21 155.75, 745.17 191.38 T 681.09 227 M 669.09 227 m -1, 0 a 1,1 0 1,0 2,0 a 1,1 0 1,0 -2,0 M 669.09 227 m -0.5, 0 a 0.5,0.5 0 1,0 1,0 a 0.5,0.5 0 1,0 -1,0  M669.09 227 L669.09 227 681.09 227 M675.09 233 L675.09 233 675.09 221" id="h1148161791" class="r"></path><path d="M 968.62 180.75 m -1, 0 a 1,1 0 1,0 2,0 a 1,1 0 1,0 -2,0 M 968.62 180.75 m -0.5, 0 a 0.5,0.5 0 1,0 1,0 a 0.5,0.5 0 1,0 -1,0  M968.62 180.75 L968.62 180.75 980.62 180.75 M 968.62 186.75 m -1, 0 a 1,1 0 1,0 2,0 a 1,1 0 1,0 -2,0 M 968.62 186.75 m -0.5, 0 a 0.5,0.5 0 1,0 1,0 a 0.5,0.5 0 1,0 -1,0  M968.62 186.75 L968.62 186.75 975.62 180.75 968.62 174.75 M 968.62 174.75 m -1, 0 a 1,1 0 1,0 2,0 a 1,1 0 1,0 -2,0 M 968.62 174.75 m -0.5, 0 a 0.5,0.5 0 1,0 1,0 a 0.5,0.5 0 1,0 -1,0  M980.62 180.75 Q 1004.09 180.75, 1027.56 180.88 T 1074.5 181 M 1086.5 181 m -1, 0 a 1,1 0 1,0 2,0 a 1,1 0 1,0 -2,0 M 1086.5 181 m -0.5, 0 a 0.5,0.5 0 1,0 1,0 a 0.5,0.5 0 1,0 -1,0  M1086.5 181 L1086.5 181 1074.5 181 M1080.5 187 L1080.5 187 1080.5 175" id="h2902278022" class="r"></path><path d="M 812.5 328.25 m -1, 0 a 1,1 0 1,0 2,0 a 1,1 0 1,0 -2,0 M 812.5 328.25 m -0.5, 0 a 0.5,0.5 0 1,0 1,0 a 0.5,0.5 0 1,0 -1,0  M812.5 328.25 L812.5 328.25 800.5 328.25 M 812.5 334.25 m -1, 0 a 1,1 0 1,0 2,0 a 1,1 0 1,0 -2,0 M 812.5 334.25 m -0.5, 0 a 0.5,0.5 0 1,0 1,0 a 0.5,0.5 0 1,0 -1,0  M812.5 334.25 L812.5 334.25 805.5 328.25 812.5 322.25 M 812.5 322.25 m -1, 0 a 1,1 0 1,0 2,0 a 1,1 0 1,0 -2,0 M 812.5 322.25 m -0.5, 0 a 0.5,0.5 0 1,0 1,0 a 0.5,0.5 0 1,0 -1,0  M800.5 328.25 Q 770.65 328.25, 740.8 277.63 T 681.09 227 M 669.09 227 m -1, 0 a 1,1 0 1,0 2,0 a 1,1 0 1,0 -2,0 M 669.09 227 m -0.5, 0 a 0.5,0.5 0 1,0 1,0 a 0.5,0.5 0 1,0 -1,0  M669.09 227 L669.09 227 681.09 227 M675.09 233 L675.09 233 675.09 221" id="h3280575152" class="r"></path><path d="M 981.21 353.25 m -1, 0 a 1,1 0 1,0 2,0 a 1,1 0 1,0 -2,0 M 981.21 353.25 m -0.5, 0 a 0.5,0.5 0 1,0 1,0 a 0.5,0.5 0 1,0 -1,0  M981.21 353.25 L981.21 353.25 993.21 353.25 M 981.21 359.25 m -1, 0 a 1,1 0 1,0 2,0 a 1,1 0 1,0 -2,0 M 981.21 359.25 m -0.5, 0 a 0.5,0.5 0 1,0 1,0 a 0.5,0.5 0 1,0 -1,0  M981.21 359.25 L981.21 359.25 988.21 353.25 981.21 347.25 M 981.21 347.25 m -1, 0 a 1,1 0 1,0 2,0 a 1,1 0 1,0 -2,0 M 981.21 347.25 m -0.5, 0 a 0.5,0.5 0 1,0 1,0 a 0.5,0.5 0 1,0 -1,0  M993.21 353.25 Q 1012.66 353.25, 1032.11 353.38 T 1071 353.5 M 1083 353.5 m -1, 0 a 1,1 0 1,0 2,0 a 1,1 0 1,0 -2,0 M 1083 353.5 m -0.5, 0 a 0.5,0.5 0 1,0 1,0 a 0.5,0.5 0 1,0 -1,0  M1083 353.5 L1083 353.5 1071 353.5 M1077 359.5 L1077 359.5 1077 347.5" id="h3681890119" class="r"></path></g><g class="hrs"></g><g class="ts"><svg width="210.09" height="175" x="459" y="170" id="h1397465888" class="t"><rect height="40" width="210.09" class="th"></rect><text x="13" y="25" class="tht">songs</text><rect height="135" width="210.09" class="t-bg"></rect><text x="13" y="61" class="tf pk">id<tspan x="197.09" class="ty">SERIAL</tspan></text><path d="M7,14A2,2 0 0,1 5,12A2,2 0 0,1 7,10A2,2 0 0,1 9,12A2,2 0 0,1 7,14M12.65,10C11.83,7.67 9.61,6 7, 6A6, 6 0 0, 0 1, 12A6, 6 0 0, 0 7, 18C9.61, 18 11.83, 16.33 12.65, 14H17V18H21V14H23V10H12.65Z" class="i pk" transform="translate(134.404453125, 48) scale(0.65)"></path><text x="13" y="86" class="tf">title<tspan x="197.09" class="ty">TEXT</tspan></text><text x="13" y="111" class="tf">duration_in_seconds<tspan x="197.09" class="ty">INTEGER</tspan></text><text x="13" y="136" class="tf">release_date<tspan x="197.09" class="ty">DATE</tspan></text><text x="13" y="161" class="tf fk">album_id<tspan x="197.09" class="ty">INTEGER</tspan></text></svg><svg width="146.04" height="100" x="224" y="270" id="h4054502185" class="t"><rect height="40" width="146.04" class="th"></rect><text x="13" y="25" class="tht">albums</text><rect height="60" width="146.04" class="t-bg"></rect><text x="13" y="61" class="tf pk">id<tspan x="133.04" class="ty">SERIAL</tspan></text><path d="M7,14A2,2 0 0,1 5,12A2,2 0 0,1 7,10A2,2 0 0,1 9,12A2,2 0 0,1 7,14M12.65,10C11.83,7.67 9.61,6 7, 6A6, 6 0 0, 0 1, 12A6, 6 0 0, 0 7, 18C9.61, 18 11.83, 16.33 12.65, 14H17V18H21V14H23V10H12.65Z" class="i pk" transform="translate(70.35445312499999, 48) scale(0.65)"></path><text x="13" y="86" class="tf">album_name<tspan x="133.04" class="ty">TEXT</tspan></text></svg><svg width="168.71" height="125" x="812.5" y="246.25" id="h1619541143" class="t"><rect height="40" width="168.71" class="th"></rect><text x="13" y="25" class="tht">song_producer</text><rect height="85" width="168.71" class="t-bg"></rect><text x="13" y="61" class="tf pk">id<tspan x="155.71" class="ty">SERIAL</tspan></text><path d="M7,14A2,2 0 0,1 5,12A2,2 0 0,1 7,10A2,2 0 0,1 9,12A2,2 0 0,1 7,14M12.65,10C11.83,7.67 9.61,6 7, 6A6, 6 0 0, 0 1, 12A6, 6 0 0, 0 7, 18C9.61, 18 11.83, 16.33 12.65, 14H17V18H21V14H23V10H12.65Z" class="i pk" transform="translate(93.02445312500001, 48) scale(0.65)"></path><text x="13" y="86" class="tf fk">songs_id<tspan x="155.71" class="ty">INTEGER</tspan></text><text x="13" y="111" class="tf fk">producers_id<tspan x="155.71" class="ty">INTEGER</tspan></text></svg><svg width="160.72" height="100" x="1083" y="296.5" id="h568809404" class="t"><rect height="40" width="160.72" class="th"></rect><text x="13" y="25" class="tht">producers</text><rect height="60" width="160.72" class="t-bg"></rect><text x="13" y="61" class="tf pk">id<tspan x="147.72" class="ty">SERIAL</tspan></text><path d="M7,14A2,2 0 0,1 5,12A2,2 0 0,1 7,10A2,2 0 0,1 9,12A2,2 0 0,1 7,14M12.65,10C11.83,7.67 9.61,6 7, 6A6, 6 0 0, 0 1, 12A6, 6 0 0, 0 7, 18C9.61, 18 11.83, 16.33 12.65, 14H17V18H21V14H23V10H12.65Z" class="i pk" transform="translate(85.034453125, 48) scale(0.65)"></path><text x="13" y="86" class="tf">producer_name<tspan x="147.72" class="ty">TEXT</tspan></text></svg><svg width="147.37" height="125" x="821.25" y="73.75" id="h1717777713" class="t"><rect height="40" width="147.37" class="th"></rect><text x="13" y="25" class="tht">song_artist</text><rect height="85" width="147.37" class="t-bg"></rect><text x="13" y="61" class="tf pk">id<tspan x="134.37" class="ty">SERIAL</tspan></text><path d="M7,14A2,2 0 0,1 5,12A2,2 0 0,1 7,10A2,2 0 0,1 9,12A2,2 0 0,1 7,14M12.65,10C11.83,7.67 9.61,6 7, 6A6, 6 0 0, 0 1, 12A6, 6 0 0, 0 7, 18C9.61, 18 11.83, 16.33 12.65, 14H17V18H21V14H23V10H12.65Z" class="i pk" transform="translate(71.684453125, 48) scale(0.65)"></path><text x="13" y="86" class="tf fk">songs_id<tspan x="134.37" class="ty">INTEGER</tspan></text><text x="13" y="111" class="tf fk">artists_id<tspan x="134.37" class="ty">INTEGER</tspan></text></svg><svg width="139.36" height="100" x="1086.5" y="124" id="h3332549476" class="t"><rect height="40" width="139.36" class="th"></rect><text x="13" y="25" class="tht">artists</text><rect height="60" width="139.36" class="t-bg"></rect><text x="13" y="61" class="tf pk">id<tspan x="126.36000000000001" class="ty">SERIAL</tspan></text><path d="M7,14A2,2 0 0,1 5,12A2,2 0 0,1 7,10A2,2 0 0,1 9,12A2,2 0 0,1 7,14M12.65,10C11.83,7.67 9.61,6 7, 6A6, 6 0 0, 0 1, 12A6, 6 0 0, 0 7, 18C9.61, 18 11.83, 16.33 12.65, 14H17V18H21V14H23V10H12.65Z" class="i pk" transform="translate(63.674453125000014, 48) scale(0.65)"></path><text x="13" y="86" class="tf">artist_name<tspan x="126.36000000000001" class="ty">TEXT</tspan></text></svg></g></g><text class="qdbd-link" x="10" y="20">www.quickdatabasediagrams.com</text></svg>