<svg class="diagram-root" style="background: #f5f6f6" xmlns="http://www.w3.org/2000/svg" xmlns:xlink="http://www.w3.org/1999/xlink"><style>.diagram-root { font-family: "Helvetica Neue", sans-serif; font-size: 12px; } .t { overflow: visible; } .t-bg { y: 40; fill: #fff;   } .th { fill: #005aa0;   } .tht { fill: #fff; font-size: 14px;  } .tf { fill: #323c46; overflow: visible; } .tf.pk { fill: #005aa0; font-weight: bold; } .tf.fk { font-weight: bold; } .ty { fill: #adb1b5; font-weight: normal; text-anchor: end; } .r { fill: transparent; stroke: #c3c3c3; stroke-width: 1; } .l { stroke: 1; } .i { fill: #c2c7ce; stroke: #c2c7ce; } .i.ix { fill: #afb3b6; stroke: #000; } .fa { fill: transparent; overflow: visible; } .fa .bg.hover { fill: #f7f7f7; } .c { cy: 12; r: 4; stroke: #d2d2dc; fill: #d2d2dc; } .hr { fill: transparent; stroke: #323c46; stroke-opacity: 0.035; stroke-width: 13; } .dc { stroke: #fa5a3c; fill: #fa5a3c; } .x { stroke: white; stroke-width: 1; } .hl .th { fill: #1b9bff; } .hl .tht {  } .fhl .bg { fill: #e7f4ff; } .fhls .bg {  } .r.hl { stroke: #1b9bff; } .dim { opacity: 0.25; }</style><g class="drawing-wrapper" transform="translate(-96, -53) scale(1,1)"><g class="rs"><path d="M 357 170 m -1, 0 a 1,1 0 1,0 2,0 a 1,1 0 1,0 -2,0 M 357 170 m -0.5, 0 a 0.5,0.5 0 1,0 1,0 a 0.5,0.5 0 1,0 -1,0  M357 170 L357 170 345 170 M 357 176 m -1, 0 a 1,1 0 1,0 2,0 a 1,1 0 1,0 -2,0 M 357 176 m -0.5, 0 a 0.5,0.5 0 1,0 1,0 a 0.5,0.5 0 1,0 -1,0  M357 176 L357 176 350 170 357 164 M 357 164 m -1, 0 a 1,1 0 1,0 2,0 a 1,1 0 1,0 -2,0 M 357 164 m -0.5, 0 a 0.5,0.5 0 1,0 1,0 a 0.5,0.5 0 1,0 -1,0  M345 170 Q 326.1 170, 307.19 155 T 269.38 140 M 257.38 140 m -1, 0 a 1,1 0 1,0 2,0 a 1,1 0 1,0 -2,0 M 257.38 140 m -0.5, 0 a 0.5,0.5 0 1,0 1,0 a 0.5,0.5 0 1,0 -1,0  M257.38 140 L257.38 140 269.38 140 M263.38 146 L263.38 146 263.38 134" id="h8357394" class="r"></path><path d="M 357 195 m -1, 0 a 1,1 0 1,0 2,0 a 1,1 0 1,0 -2,0 M 357 195 m -0.5, 0 a 0.5,0.5 0 1,0 1,0 a 0.5,0.5 0 1,0 -1,0  M357 195 L357 195 345 195 M 357 201 m -1, 0 a 1,1 0 1,0 2,0 a 1,1 0 1,0 -2,0 M 357 201 m -0.5, 0 a 0.5,0.5 0 1,0 1,0 a 0.5,0.5 0 1,0 -1,0  M357 201 L357 201 350 195 357 189 M 357 189 m -1, 0 a 1,1 0 1,0 2,0 a 1,1 0 1,0 -2,0 M 357 189 m -0.5, 0 a 0.5,0.5 0 1,0 1,0 a 0.5,0.5 0 1,0 -1,0  M345 195 Q 325.77 195, 306.53 220.5 T 268.06 246 M 256.06 246 m -1, 0 a 1,1 0 1,0 2,0 a 1,1 0 1,0 -2,0 M 256.06 246 m -0.5, 0 a 0.5,0.5 0 1,0 1,0 a 0.5,0.5 0 1,0 -1,0  M256.06 246 L256.06 246 268.06 246 M262.06 252 L262.06 252 262.06 240" id="h2101535807" class="r"></path><path d="M 639 201 m -1, 0 a 1,1 0 1,0 2,0 a 1,1 0 1,0 -2,0 M 639 201 m -0.5, 0 a 0.5,0.5 0 1,0 1,0 a 0.5,0.5 0 1,0 -1,0  M639 201 L639 201 627 201 M 639 207 m -1, 0 a 1,1 0 1,0 2,0 a 1,1 0 1,0 -2,0 M 639 207 m -0.5, 0 a 0.5,0.5 0 1,0 1,0 a 0.5,0.5 0 1,0 -1,0  M639 207 L639 207 632 201 639 195 M 639 195 m -1, 0 a 1,1 0 1,0 2,0 a 1,1 0 1,0 -2,0 M 639 195 m -0.5, 0 a 0.5,0.5 0 1,0 1,0 a 0.5,0.5 0 1,0 -1,0  M627 201 Q 601.68 201, 576.37 173 T 525.73 145 M 513.73 145 m -1, 0 a 1,1 0 1,0 2,0 a 1,1 0 1,0 -2,0 M 513.73 145 m -0.5, 0 a 0.5,0.5 0 1,0 1,0 a 0.5,0.5 0 1,0 -1,0  M513.73 145 L513.73 145 525.73 145 M519.73 151 L519.73 151 519.73 139" id="h3904987318" class="r"></path><path d="M 639 226 m -1, 0 a 1,1 0 1,0 2,0 a 1,1 0 1,0 -2,0 M 639 226 m -0.5, 0 a 0.5,0.5 0 1,0 1,0 a 0.5,0.5 0 1,0 -1,0  M639 226 L639 226 627 226 M 639 232 m -1, 0 a 1,1 0 1,0 2,0 a 1,1 0 1,0 -2,0 M 639 232 m -0.5, 0 a 0.5,0.5 0 1,0 1,0 a 0.5,0.5 0 1,0 -1,0  M639 232 L639 232 632 226 639 220 M 639 220 m -1, 0 a 1,1 0 1,0 2,0 a 1,1 0 1,0 -2,0 M 639 220 m -0.5, 0 a 0.5,0.5 0 1,0 1,0 a 0.5,0.5 0 1,0 -1,0  M627 226 Q 599.35 226, 571.69 275 T 516.39 324 M 504.39 324 m -1, 0 a 1,1 0 1,0 2,0 a 1,1 0 1,0 -2,0 M 504.39 324 m -0.5, 0 a 0.5,0.5 0 1,0 1,0 a 0.5,0.5 0 1,0 -1,0  M504.39 324 L504.39 324 516.39 324 M510.39 330 L510.39 330 510.39 318" id="h2018726782" class="r"></path></g><g class="hrs"></g><g class="ts"><svg width="135.38" height="100" x="122" y="83" id="h2153083178" class="t"><rect height="40" width="135.38" class="th"></rect><text x="13" y="25" class="tht">doctors</text><rect height="60" width="135.38" class="t-bg"></rect><text x="13" y="61" class="tf pk">id<tspan x="122.38" class="ty">serial</tspan></text><path d="M7,14A2,2 0 0,1 5,12A2,2 0 0,1 7,10A2,2 0 0,1 9,12A2,2 0 0,1 7,14M12.65,10C11.83,7.67 9.61,6 7, 6A6, 6 0 0, 0 1, 12A6, 6 0 0, 0 7, 18C9.61, 18 11.83, 16.33 12.65, 14H17V18H21V14H23V10H12.65Z" class="i pk" transform="translate(73.70421875, 48) scale(0.65)"></path><text x="13" y="86" class="tf">doctor_name<tspan x="122.38" class="ty">text</tspan></text></svg><svg width="138.06" height="100" x="118" y="189" id="h2571196243" class="t"><rect height="40" width="138.06" class="th"></rect><text x="13" y="25" class="tht">patients</text><rect height="60" width="138.06" class="t-bg"></rect><text x="13" y="61" class="tf pk">id<tspan x="125.06" class="ty">serial</tspan></text><path d="M7,14A2,2 0 0,1 5,12A2,2 0 0,1 7,10A2,2 0 0,1 9,12A2,2 0 0,1 7,14M12.65,10C11.83,7.67 9.61,6 7, 6A6, 6 0 0, 0 1, 12A6, 6 0 0, 0 7, 18C9.61, 18 11.83, 16.33 12.65, 14H17V18H21V14H23V10H12.65Z" class="i pk" transform="translate(76.38421875, 48) scale(0.65)"></path><text x="13" y="86" class="tf">patient_name<tspan x="125.06" class="ty">text</tspan></text></svg><svg width="143.39" height="125" x="361" y="267" id="h234337789" class="t"><rect height="40" width="143.39" class="th"></rect><text x="13" y="25" class="tht">diseases</text><rect height="85" width="143.39" class="t-bg"></rect><text x="13" y="61" class="tf pk">id<tspan x="130.39" class="ty">serial</tspan></text><path d="M7,14A2,2 0 0,1 5,12A2,2 0 0,1 7,10A2,2 0 0,1 9,12A2,2 0 0,1 7,14M12.65,10C11.83,7.67 9.61,6 7, 6A6, 6 0 0, 0 1, 12A6, 6 0 0, 0 7, 18C9.61, 18 11.83, 16.33 12.65, 14H17V18H21V14H23V10H12.65Z" class="i pk" transform="translate(81.71421874999999, 48) scale(0.65)"></path><text x="13" y="86" class="tf">disease_name<tspan x="130.39" class="ty">text</tspan></text><text x="13" y="111" class="tf">symptoms<tspan x="130.39" class="ty">text</tspan></text></svg><svg width="156.73" height="175" x="357" y="88" id="h2569522486" class="t"><rect height="40" width="156.73" class="th"></rect><text x="13" y="25" class="tht">visits</text><rect height="135" width="156.73" class="t-bg"></rect><text x="13" y="61" class="tf pk">id<tspan x="143.73" class="ty">serial</tspan></text><path d="M7,14A2,2 0 0,1 5,12A2,2 0 0,1 7,10A2,2 0 0,1 9,12A2,2 0 0,1 7,14M12.65,10C11.83,7.67 9.61,6 7, 6A6, 6 0 0, 0 1, 12A6, 6 0 0, 0 7, 18C9.61, 18 11.83, 16.33 12.65, 14H17V18H21V14H23V10H12.65Z" class="i pk" transform="translate(95.05421874999999, 48) scale(0.65)"></path><text x="13" y="86" class="tf fk">doctor_id<tspan x="143.73" class="ty">int</tspan></text><text x="13" y="111" class="tf fk">patient_id<tspan x="143.73" class="ty">int</tspan></text><text x="13" y="136" class="tf">date<tspan x="143.73" class="ty">DATE</tspan></text><text x="13" y="161" class="tf">amount_owes<tspan x="143.73" class="ty">money</tspan></text></svg><svg width="116.72" height="150" x="639" y="119" id="h647382338" class="t"><rect height="40" width="116.72" class="th"></rect><text x="13" y="25" class="tht">diagnoses</text><rect height="110" width="116.72" class="t-bg"></rect><text x="13" y="61" class="tf pk">id<tspan x="103.72" class="ty">serial</tspan></text><path d="M7,14A2,2 0 0,1 5,12A2,2 0 0,1 7,10A2,2 0 0,1 9,12A2,2 0 0,1 7,14M12.65,10C11.83,7.67 9.61,6 7, 6A6, 6 0 0, 0 1, 12A6, 6 0 0, 0 7, 18C9.61, 18 11.83, 16.33 12.65, 14H17V18H21V14H23V10H12.65Z" class="i pk" transform="translate(55.04421875, 48) scale(0.65)"></path><text x="13" y="86" class="tf fk">visit_id<tspan x="103.72" class="ty">int</tspan></text><text x="13" y="111" class="tf fk">disease_id<tspan x="103.72" class="ty">int</tspan></text><text x="13" y="136" class="tf">additional<tspan x="103.72" class="ty">text</tspan></text></svg></g></g><text class="qdbd-link" x="10" y="20">www.quickdatabasediagrams.com</text></svg>