<svg class="diagram-root" style="background: #f5f6f6" xmlns="http://www.w3.org/2000/svg" xmlns:xlink="http://www.w3.org/1999/xlink"><style>.diagram-root { font-family: "Helvetica Neue", sans-serif; font-size: 12px; } .t { overflow: visible; } .t-bg { y: 40; fill: #fff;   } .th { fill: #005aa0;   } .tht { fill: #fff; font-size: 14px;  } .tf { fill: #323c46; overflow: visible; } .tf.pk { fill: #005aa0; font-weight: bold; } .tf.fk { font-weight: bold; } .ty { fill: #adb1b5; font-weight: normal; text-anchor: end; } .r { fill: transparent; stroke: #c3c3c3; stroke-width: 1; } .l { stroke: 1; } .i { fill: #c2c7ce; stroke: #c2c7ce; } .i.ix { fill: #afb3b6; stroke: #000; } .fa { fill: transparent; overflow: visible; } .fa .bg.hover { fill: #f7f7f7; } .c { cy: 12; r: 4; stroke: #d2d2dc; fill: #d2d2dc; } .hr { fill: transparent; stroke: #323c46; stroke-opacity: 0.035; stroke-width: 13; } .dc { stroke: #fa5a3c; fill: #fa5a3c; } .x { stroke: white; stroke-width: 1; } .hl .th { fill: #1b9bff; } .hl .tht {  } .fhl .bg { fill: #e7f4ff; } .fhls .bg {  } .r.hl { stroke: #1b9bff; } .dim { opacity: 0.25; }</style><g class="drawing-wrapper" transform="translate(-103, -156) scale(1,1)"><g class="rs"><path d="M 353 268 m -1, 0 a 1,1 0 1,0 2,0 a 1,1 0 1,0 -2,0 M 353 268 m -0.5, 0 a 0.5,0.5 0 1,0 1,0 a 0.5,0.5 0 1,0 -1,0  M353 268 L353 268 341 268 M 353 274 m -1, 0 a 1,1 0 1,0 2,0 a 1,1 0 1,0 -2,0 M 353 274 m -0.5, 0 a 0.5,0.5 0 1,0 1,0 a 0.5,0.5 0 1,0 -1,0  M353 274 L353 274 346 268 353 262 M 353 262 m -1, 0 a 1,1 0 1,0 2,0 a 1,1 0 1,0 -2,0 M 353 262 m -0.5, 0 a 0.5,0.5 0 1,0 1,0 a 0.5,0.5 0 1,0 -1,0  M341 268 Q 320.34 268, 299.68 255.5 T 258.36 243 M 246.36 243 m -1, 0 a 1,1 0 1,0 2,0 a 1,1 0 1,0 -2,0 M 246.36 243 m -0.5, 0 a 0.5,0.5 0 1,0 1,0 a 0.5,0.5 0 1,0 -1,0  M246.36 243 L246.36 243 258.36 243 M252.36 249 L252.36 249 252.36 237" id="h1488548927" class="r"></path><path d="M 505.72 368 m -1, 0 a 1,1 0 1,0 2,0 a 1,1 0 1,0 -2,0 M 505.72 368 m -0.5, 0 a 0.5,0.5 0 1,0 1,0 a 0.5,0.5 0 1,0 -1,0  M505.72 368 L505.72 368 517.72 368 M 505.72 374 m -1, 0 a 1,1 0 1,0 2,0 a 1,1 0 1,0 -2,0 M 505.72 374 m -0.5, 0 a 0.5,0.5 0 1,0 1,0 a 0.5,0.5 0 1,0 -1,0  M505.72 374 L505.72 374 512.72 368 505.72 362 M 505.72 362 m -1, 0 a 1,1 0 1,0 2,0 a 1,1 0 1,0 -2,0 M 505.72 362 m -0.5, 0 a 0.5,0.5 0 1,0 1,0 a 0.5,0.5 0 1,0 -1,0  M517.72 368 Q 535.79 368, 553.86 355.5 T 590 343 M 602 343 m -1, 0 a 1,1 0 1,0 2,0 a 1,1 0 1,0 -2,0 M 602 343 m -0.5, 0 a 0.5,0.5 0 1,0 1,0 a 0.5,0.5 0 1,0 -1,0  M602 343 L602 343 590 343 M596 349 L596 349 596 337" id="h562062117" class="r"></path><path d="M 353 393 m -1, 0 a 1,1 0 1,0 2,0 a 1,1 0 1,0 -2,0 M 353 393 m -0.5, 0 a 0.5,0.5 0 1,0 1,0 a 0.5,0.5 0 1,0 -1,0  M353 393 L353 393 341 393 M 353 399 m -1, 0 a 1,1 0 1,0 2,0 a 1,1 0 1,0 -2,0 M 353 399 m -0.5, 0 a 0.5,0.5 0 1,0 1,0 a 0.5,0.5 0 1,0 -1,0  M353 399 L353 399 346 393 353 387 M 353 387 m -1, 0 a 1,1 0 1,0 2,0 a 1,1 0 1,0 -2,0 M 353 387 m -0.5, 0 a 0.5,0.5 0 1,0 1,0 a 0.5,0.5 0 1,0 -1,0  M341 393 Q 320.51 393, 300.02 397.5 T 259.03 402 M 247.03 402 m -1, 0 a 1,1 0 1,0 2,0 a 1,1 0 1,0 -2,0 M 247.03 402 m -0.5, 0 a 0.5,0.5 0 1,0 1,0 a 0.5,0.5 0 1,0 -1,0  M247.03 402 L247.03 402 259.03 402 M253.03 408 L253.03 408 253.03 396" id="h4272915010" class="r"></path><path d="M 353 418 m -1, 0 a 1,1 0 1,0 2,0 a 1,1 0 1,0 -2,0 M 353 418 m -0.5, 0 a 0.5,0.5 0 1,0 1,0 a 0.5,0.5 0 1,0 -1,0  M353 418 L353 418 341 418 M 353 424 m -1, 0 a 1,1 0 1,0 2,0 a 1,1 0 1,0 -2,0 M 353 424 m -0.5, 0 a 0.5,0.5 0 1,0 1,0 a 0.5,0.5 0 1,0 -1,0  M353 424 L353 424 346 418 353 412 M 353 412 m -1, 0 a 1,1 0 1,0 2,0 a 1,1 0 1,0 -2,0 M 353 412 m -0.5, 0 a 0.5,0.5 0 1,0 1,0 a 0.5,0.5 0 1,0 -1,0  M341 418 Q 320.51 418, 300.02 410 T 259.03 402 M 247.03 402 m -1, 0 a 1,1 0 1,0 2,0 a 1,1 0 1,0 -2,0 M 247.03 402 m -0.5, 0 a 0.5,0.5 0 1,0 1,0 a 0.5,0.5 0 1,0 -1,0  M247.03 402 L247.03 402 259.03 402 M253.03 408 L253.03 408 253.03 396" id="h3178198325" class="r"></path><path d="M 247.03 452 m -1, 0 a 1,1 0 1,0 2,0 a 1,1 0 1,0 -2,0 M 247.03 452 m -0.5, 0 a 0.5,0.5 0 1,0 1,0 a 0.5,0.5 0 1,0 -1,0  M247.03 452 L247.03 452 259.03 452 M 247.03 458 m -1, 0 a 1,1 0 1,0 2,0 a 1,1 0 1,0 -2,0 M 247.03 458 m -0.5, 0 a 0.5,0.5 0 1,0 1,0 a 0.5,0.5 0 1,0 -1,0  M247.03 458 L247.03 458 254.03 452 247.03 446 M 247.03 446 m -1, 0 a 1,1 0 1,0 2,0 a 1,1 0 1,0 -2,0 M 247.03 446 m -0.5, 0 a 0.5,0.5 0 1,0 1,0 a 0.5,0.5 0 1,0 -1,0  M259.03 452 Q 280.27 452, 301.52 477.5 T 344 503 M 356 503 m -1, 0 a 1,1 0 1,0 2,0 a 1,1 0 1,0 -2,0 M 356 503 m -0.5, 0 a 0.5,0.5 0 1,0 1,0 a 0.5,0.5 0 1,0 -1,0  M356 503 L356 503 344 503 M350 509 L350 509 350 497" id="h1365362914" class="r"></path></g><g class="hrs"></g><g class="ts"><svg width="121.36" height="125" x="125" y="186" id="h382903295" class="t"><rect height="40" width="121.36" class="th"></rect><text x="13" y="25" class="tht">passengers</text><rect height="85" width="121.36" class="t-bg"></rect><text x="13" y="61" class="tf pk">id<tspan x="108.36" class="ty">serial</tspan></text><path d="M7,14A2,2 0 0,1 5,12A2,2 0 0,1 7,10A2,2 0 0,1 9,12A2,2 0 0,1 7,14M12.65,10C11.83,7.67 9.61,6 7, 6A6, 6 0 0, 0 1, 12A6, 6 0 0, 0 7, 18C9.61, 18 11.83, 16.33 12.65, 14H17V18H21V14H23V10H12.65Z" class="i pk" transform="translate(59.68421875, 48) scale(0.65)"></path><text x="13" y="86" class="tf">first_name<tspan x="108.36" class="ty">text</tspan></text><text x="13" y="111" class="tf">last_name<tspan x="108.36" class="ty">text</tspan></text></svg><svg width="152.72" height="250" x="353" y="186" id="h658760698" class="t"><rect height="40" width="152.72" class="th"></rect><text x="13" y="25" class="tht">tickets</text><rect height="210" width="152.72" class="t-bg"></rect><text x="13" y="61" class="tf pk">id<tspan x="139.72" class="ty">serial</tspan></text><path d="M7,14A2,2 0 0,1 5,12A2,2 0 0,1 7,10A2,2 0 0,1 9,12A2,2 0 0,1 7,14M12.65,10C11.83,7.67 9.61,6 7, 6A6, 6 0 0, 0 1, 12A6, 6 0 0, 0 7, 18C9.61, 18 11.83, 16.33 12.65, 14H17V18H21V14H23V10H12.65Z" class="i pk" transform="translate(91.04421875, 48) scale(0.65)"></path><text x="13" y="86" class="tf fk">passenger_id<tspan x="139.72" class="ty">int</tspan></text><text x="13" y="111" class="tf">seat<tspan x="139.72" class="ty">text</tspan></text><text x="13" y="136" class="tf">departure<tspan x="139.72" class="ty">timestamp</tspan></text><text x="13" y="161" class="tf">arrival<tspan x="139.72" class="ty">timestamp</tspan></text><text x="13" y="186" class="tf fk">airline_id<tspan x="139.72" class="ty">int</tspan></text><text x="13" y="211" class="tf fk">from_id<tspan x="139.72" class="ty">int</tspan></text><text x="13" y="236" class="tf fk">to_id<tspan x="139.72" class="ty">int</tspan></text></svg><svg width="104.02" height="100" x="602" y="286" id="h1701999969" class="t"><rect height="40" width="104.02" class="th"></rect><text x="13" y="25" class="tht">airlines</text><rect height="60" width="104.02" class="t-bg"></rect><text x="13" y="61" class="tf pk">id<tspan x="91.02" class="ty">serial</tspan></text><path d="M7,14A2,2 0 0,1 5,12A2,2 0 0,1 7,10A2,2 0 0,1 9,12A2,2 0 0,1 7,14M12.65,10C11.83,7.67 9.61,6 7, 6A6, 6 0 0, 0 1, 12A6, 6 0 0, 0 7, 18C9.61, 18 11.83, 16.33 12.65, 14H17V18H21V14H23V10H12.65Z" class="i pk" transform="translate(42.344218749999996, 48) scale(0.65)"></path><text x="13" y="86" class="tf">airline<tspan x="91.02" class="ty">text</tspan></text></svg><svg width="120.03" height="125" x="127" y="345" id="h2994671288" class="t"><rect height="40" width="120.03" class="th"></rect><text x="13" y="25" class="tht">locations</text><rect height="85" width="120.03" class="t-bg"></rect><text x="13" y="61" class="tf pk">id<tspan x="107.03" class="ty">serial</tspan></text><path d="M7,14A2,2 0 0,1 5,12A2,2 0 0,1 7,10A2,2 0 0,1 9,12A2,2 0 0,1 7,14M12.65,10C11.83,7.67 9.61,6 7, 6A6, 6 0 0, 0 1, 12A6, 6 0 0, 0 7, 18C9.61, 18 11.83, 16.33 12.65, 14H17V18H21V14H23V10H12.65Z" class="i pk" transform="translate(58.35421875, 48) scale(0.65)"></path><text x="13" y="86" class="tf">city_name<tspan x="107.03" class="ty">text</tspan></text><text x="13" y="111" class="tf fk">country_id<tspan x="107.03" class="ty">int</tspan></text></svg><svg width="141.38" height="100" x="356" y="446" id="h413949273" class="t"><rect height="40" width="141.38" class="th"></rect><text x="13" y="25" class="tht">countries</text><rect height="60" width="141.38" class="t-bg"></rect><text x="13" y="61" class="tf pk">id<tspan x="128.38" class="ty">serial</tspan></text><path d="M7,14A2,2 0 0,1 5,12A2,2 0 0,1 7,10A2,2 0 0,1 9,12A2,2 0 0,1 7,14M12.65,10C11.83,7.67 9.61,6 7, 6A6, 6 0 0, 0 1, 12A6, 6 0 0, 0 7, 18C9.61, 18 11.83, 16.33 12.65, 14H17V18H21V14H23V10H12.65Z" class="i pk" transform="translate(79.70421875, 48) scale(0.65)"></path><text x="13" y="86" class="tf">country_name<tspan x="128.38" class="ty">text</tspan></text></svg></g></g><text class="qdbd-link" x="10" y="20">www.quickdatabasediagrams.com</text></svg>